# xmcd
#
# Track frame offsets:
#	150
#	9817
#	19185
#	27875
#	39435
#	49730
#	59630
#	69960
#	80615
#	91560
#	102890
#	113760
#	125907
#	137727
#	149617
#	163587
#	174442
#	186590
#
# Disc length: 2746 seconds
#
# Revision: 3
# Processed by: cddbd v1.5.2PL0 Copyright (c) Steve Scherf et al.
# Submitted via: audiograbber 1.83.01
#
DISCID=f10ab812
DTITLE=Charlie Rich - The Sun Sessions
DYEAR=1900
DGENRE=Oldies
TTITLE0=Whirlwind
TTITLE1=Philadelphia Baby
TTITLE2=Rebound
TTITLE3=Break Up
TTITLE4=My Baby Done Left Me
TTITLE5=Lonely Weekends
TTITLE6=Everything I Do Is Wrong
TTITLE7=Gonna Be Waiting
TTITLE8=Who Will The Next Fool Be
TTITLE9=Caught In The Middle
TTITLE10=Just A Little Bit Sweet
TTITLE11=Midnite Blues
TTITLE12=Easy Money
TTITLE13=Goodbye Mary Ann
TTITLE14=Sittin' And Thinkin'
TTITLE15=Finally Found Out
TTITLE16=There Won't Be Anymore
TTITLE17=No Headstone On My Grave
EXTD=
EXTT0=
EXTT1=
EXTT2=
EXTT3=
EXTT4=
EXTT5=
EXTT6=
EXTT7=
EXTT8=
EXTT9=
EXTT10=
EXTT11=
EXTT12=
EXTT13=
EXTT14=
EXTT15=
EXTT16=
EXTT17=
PLAYORDER=
